
      <svg width="400" height="200" viewBox="0 0 400 200" xmlns="http://www.w3.org/2000/svg">
        <defs>
          <linearGradient id="carGradient" x1="0%" y1="0%" x2="100%" y2="100%">
            <stop offset="0%" style="stop-color:#FFD700;stop-opacity:1" />
            <stop offset="100%" style="stop-color:#e1b900;stop-opacity:1" />
          </linearGradient>
          <filter id="shadow" x="-50%" y="-50%" width="200%" height="200%">
            <feDropShadow dx="3" dy="3" stdDeviation="3" flood-color="rgba(0,0,0,0.3)"/>
          </filter>
        </defs>
        
        <!-- Car body -->
        <path d="M50 120 Q50 100 80 100 L320 100 Q350 100 350 120 L350 140 Q350 160 320 160 L80 160 Q50 160 50 140 Z" 
              fill="url(#carGradient)" filter="url(#shadow)"/>
        
        <!-- Windshield -->
        <path d="M90 100 Q90 80 120 80 L280 80 Q310 80 310 100" 
              fill="rgba(135,206,235,0.7)" stroke="#cda500" stroke-width="2"/>
        
        <!-- Wheels -->
        <circle cx="100" cy="160" r="25" fill="#2c3e50" stroke="#34495e" stroke-width="3"/>
        <circle cx="300" cy="160" r="25" fill="#2c3e50" stroke="#34495e" stroke-width="3"/>
        <circle cx="100" cy="160" r="15" fill="#95a5a6"/>
        <circle cx="300" cy="160" r="15" fill="#95a5a6"/>
        
        <!-- Headlights -->
        <ellipse cx="340" cy="125" rx="8" ry="12" fill="#f1c40f"/>
        <ellipse cx="60" cy="125" rx="8" ry="12" fill="#e74c3c"/>
        
        <!-- Brand text -->
        <text x="200" y="50" text-anchor="middle" font-family="Arial, sans-serif" font-size="18" font-weight="bold" fill="#2c3e50">Lamborghini</text>
        <text x="200" y="70" text-anchor="middle" font-family="Arial, sans-serif" font-size="14" fill="#7f8c8d">Huracan</text>
      </svg>
    