
      <svg width="400" height="200" viewBox="0 0 400 200" xmlns="http://www.w3.org/2000/svg">
        <defs>
          <linearGradient id="carGradient" x1="0%" y1="0%" x2="100%" y2="100%">
            <stop offset="0%" style="stop-color:#000000;stop-opacity:1" />
            <stop offset="100%" style="stop-color:#000000;stop-opacity:1" />
          </linearGradient>
          <filter id="shadow" x="-50%" y="-50%" width="200%" height="200%">
            <feDropShadow dx="3" dy="3" stdDeviation="3" flood-color="rgba(0,0,0,0.3)"/>
          </filter>
        </defs>
        
        <!-- Car body -->
        <path d="M70 130 Q70 110 90 110 L310 110 Q330 110 330 130 L330 150 Q330 170 310 170 L90 170 Q70 170 70 150 Z" 
              fill="url(#carGradient)" filter="url(#shadow)"/>
        
        <!-- Roof -->
        <path d="M100 110 Q100 90 130 90 L270 90 Q300 90 300 110" 
              fill="url(#carGradient)"/>
        
        <!-- Windows -->
        <path d="M110 110 Q110 95 135 95 L265 95 Q290 95 290 110" 
              fill="rgba(135,206,235,0.7)" stroke="#000000" stroke-width="2"/>
        
        <!-- Wheels -->
        <circle cx="120" cy="170" r="25" fill="#2c3e50" stroke="#34495e" stroke-width="3"/>
        <circle cx="280" cy="170" r="25" fill="#2c3e50" stroke="#34495e" stroke-width="3"/>
        <circle cx="120" cy="170" r="15" fill="#95a5a6"/>
        <circle cx="280" cy="170" r="15" fill="#95a5a6"/>
        
        <!-- Headlights -->
        <ellipse cx="320" cy="135" rx="8" ry="12" fill="#f1c40f"/>
        <ellipse cx="80" cy="135" rx="8" ry="12" fill="#e74c3c"/>
        
        <!-- Brand text -->
        <text x="200" y="50" text-anchor="middle" font-family="Arial, sans-serif" font-size="18" font-weight="bold" fill="#2c3e50">Audi</text>
        <text x="200" y="70" text-anchor="middle" font-family="Arial, sans-serif" font-size="14" fill="#7f8c8d">RS6 Avant</text>
      </svg>
    